<?xml version="1.0" encoding="utf-8"?>
<!-- Generator: Adobe Illustrator 27.5.0, SVG Export Plug-In . SVG Version: 6.00 Build 0)  -->
<svg version="1.1"
	xmlns="http://www.w3.org/2000/svg"
	xmlns:xlink="http://www.w3.org/1999/xlink" x="0px" y="0px" viewBox="0 0 500 500" style="enable-background:new 0 0 500 500;" xml:space="preserve">
	<g id="BACKGROUND">
		<rect x="0.819" y="0.819" width="498.362" height="498.362"/>
	</g>
	<g id="OBJECTS">
		<path d="M403.018,434.391c-19.908-5.65-36.982-1.341-56.656-1.897c-2.405-0.068-4.687-0.547-6.9-1.266
		c-0.186-0.386-0.382-0.77-0.609-1.148c-2.659-4.431-6.029-7.473-9.748-10.083c-0.93-0.652-1.882-1.278-2.849-1.891
		c-0.484-0.307-0.972-0.61-1.463-0.913c-1.965-1.21-3.984-2.402-6.01-3.695c-0.507-0.323-1.013-0.653-1.52-0.991
		c-0.659-0.439-1.443-0.973-2.29-1.582c-2.258-1.622-4.955-3.775-6.873-6.076c-0.719-0.863-1.329-1.746-1.764-2.63
		c-0.291-0.589-0.504-1.179-0.621-1.763c-0.116-0.58-0.165-1.157-0.161-1.731c0.006-0.766,0.106-1.528,0.268-2.288
		c0.041-0.19,0.085-0.38,0.133-0.57c0.096-0.38,0.205-0.759,0.323-1.138c0.178-0.569,0.377-1.137,0.584-1.707
		c0.207-0.569,0.421-1.139,0.63-1.711c0.139-0.381,0.275-0.763,0.404-1.146c0.129-0.383,0.252-0.767,0.364-1.152
		c0.671-2.312,0.951-4.67-0.035-7.135c-0.338-0.844-0.813-1.628-1.376-2.362c-0.423-0.551-0.895-1.075-1.397-1.578
		c-1.338-1.341-2.886-2.528-4.254-3.668c-0.171-0.143-0.339-0.284-0.504-0.426c-0.986-0.845-2.079-1.756-3.22-2.723
		c-0.761-0.645-1.544-1.314-2.331-2.004c-1.968-1.727-3.964-3.589-5.717-5.539c-1.052-1.169-2.017-2.37-2.836-3.592
		c-0.819-1.222-1.493-2.464-1.962-3.717c-1.528-4.075,0.204-10.058,1.004-14.059c0.191-0.952,0.273-1.924,0.264-2.905
		c-0.009-0.98-0.107-1.969-0.279-2.953c-0.23-1.312-0.589-2.616-1.036-3.88c-0.335-0.948-0.72-1.875-1.136-2.767
		c-0.139-0.297-0.281-0.591-0.427-0.88c-0.291-0.578-0.593-1.139-0.901-1.679c-3.526-6.17-8.819-8.306-14.284-11.293
		c-1.261-0.689-2.532-1.424-3.792-2.264c-0.705-0.47-1.41-0.997-2.109-1.573c-3.189-4.562-5.148-9.563-7.886-14.404
		c-3.023-5.347-2.852-12.53-3.86-18.399c-1.794-10.441-2.539-21.947-6.386-31.936c-2.594-6.736-7.804-12.217-12.76-17.229
		c-2.811-2.842-7.071-6.392-8.005-10.461c-1.022-4.451,1.438-11.29,2.846-15.499c4.734-14.15,9.284-27.45,8.596-42.435
		c-0.319-6.969-3.081-15.26-10.936-16.82c-0.625-0.739-1.868-2.154-1.959-2.29c-1.831-2.747-3.795-5.071-5.047-8.202
		c-1.236-3.088-1.803-6.378-2.155-9.678c2.621,0.062,6.314,1.361,8.809,0.371c2.522-1.002,3.402-2.428,3.662-5.042
		c0.058-0.579-0.331-1.364,0.095-1.76c0.219-0.204,3.976,0.973,4.471,0.999c3.935,0.205,8.455-0.888,9.56-5.28
		c0.534-2.12,0.038-5.231-0.856-7.182c-0.481-1.051-1.929-1.699-1.95-2.854c-0.01-0.589,0.749-0.894,0.999-1.427
		c1.01-2.156,0.571-5.843-0.428-7.896c-1.636-3.36-4.711-4.257-7.753-3.71c-1.867,0.336-3.717,1.216-5.231,2.401
		c-0.18-0.653-0.386-1.269-0.622-1.824c-1.052-2.476-3.922-4.713-6.163-5.866c-7.454-3.834-20.237-7.443-26.983-0.157
		c-2.807,3.031-2.136,8.313-5.309,11.04c-1.166,1.001-5.705,1.418-5.82,1.536c-1.163,1.186,1.229,3.656,0.736,4.743
		c-0.205,0.453-1.162,0.144-1.367,0.597c-0.148,0.326,0.683,11.688,1.08,12.145c1.952,2.247,12.553,1.968,15.505,2.134
		c0.366,0.021,0.726,0.023,1.083,0.018c0.071,0.531,0.129,0.958,0.129,1.127c0,5.431-0.631,10.753-0.631,16.194
		c0,3.646,0.178,7.975-0.421,11.567c-0.028,0.166-0.235,0.592-0.411,1.027c-1.945,0.679-3.848,1.468-5.583,2.458
		c-0.817,0.466-1.607,0.959-2.387,1.457c-0.269,0.103-0.539,0.206-0.802,0.308c-0.387,0.151-0.768,0.302-1.141,0.451
		c-1.726,0.692-3.288,1.362-4.61,1.959c0.72-2.824,1.2-5.715,1.552-8.529c0.033-0.265,0.086-0.551,0.146-0.844
		c1.223-1.095,2.458-2.201,3.192-3.669c0.431-0.861-0.313-8.106-0.917-8.71c-0.657-0.657-2.113-0.771-3.378-0.779
		c-0.165-0.088-0.271-0.146-0.275-0.156c-0.328-0.983,2.453-3.85,0-4.463c-1.34-0.335-3.083-0.053-4.47,0.298
		c-1.312-2.145-1.91-5.643-4.148-6.762c-1.25-0.625-3.224,2.63-3.54,3.386c-1.758,4.22-5.029,6.642-1.409,10.579
		c-0.029,0.15-0.062,0.3-0.089,0.451c-0.138,0.758-0.255,1.52-0.355,2.287c-0.276,2.116-0.422,4.262-0.541,6.416
		c-0.535-4.939-1.855-10.118-3.897-15.223c-1.467-3.668-5.973-11.546-8.754-14.327c-1.352-1.352-3.314-2.128-5.211-2.878
		c-1.927-0.763-3.921-1.551-4.501-2.713c-0.117-0.235-0.105-0.962-0.097-1.444c0.009-0.565,0.02-1.15-0.077-1.729
		c-0.162-0.973-0.604-1.83-0.995-2.586c-0.356-0.691-0.693-1.343-0.693-1.838c0-1.321,2.166-3.409,3.931-5.1
		c1.943,2,4.252,4.163,6.757,4.163c0.207,0,0.414-0.015,0.623-0.045c1.809-0.266,2.998-1.53,3.953-2.545
		c0.47-0.5,0.914-0.972,1.322-1.219c0.193-0.117,0.654-0.28,1.025-0.412c0.701-0.249,1.363-0.484,1.857-0.889
		c0.483-0.395,0.704-0.9,0.835-1.365c0.326,0.581,0.878,0.848,1.344,0.898c0.059,0.007,0.118,0.01,0.178,0.01
		c0.453,0,0.916-0.182,1.242-0.494c0.46-0.44,0.649-0.899,0.652-2.29c0.541-0.815,0.86-1.762,1.147-2.633
		c0.31-0.941,0.63-1.915,1.122-2.318c0.357-0.293,0.744-0.572,1.154-0.868c1.118-0.807,2.385-1.722,3.277-3.135
		c0.669-1.059,1.074-2.924,1.617-5.648c0.166-0.836,0.385-1.932,0.537-2.455c0.421-0.273,1.153-0.682,1.866-1.08
		c3.641-2.035,9.143-5.11,9.888-9.038c0.279-1.471-0.124-2.921-1.166-4.193c-0.8-0.976-2.393-1.203-6.742-1.6
		c-1.416-0.129-3.355-0.307-3.841-0.48c-2.898-1.039-5.46-2.868-8.171-4.804c-4.531-3.235-9.221-6.583-15.686-6.154
		c-0.734,0.049-10.114,1.841-11.917,5.173c-0.255,0.471-0.375,0.974-0.361,1.472c-0.495,0.179-1.05,0.418-1.497,0.857
		c-2.458,2.416-5.614,8.055-6.371,11.386c-0.477,2.097-0.636,4.169-0.479,6.224c-0.217,0.705-0.39,1.247-0.456,1.409
		c-2.901,6.768-6.93,12.046-10.488,16.316c-2.253,2.704-5.029,4.899-7.968,7.223c-3.345,2.645-6.803,5.381-9.496,8.971
		c-9.358,12.477-12.005,33.556-5.899,46.989c0.51,1.122,0.905,2.312,1.322,3.571c0.497,1.5,1.012,3.05,1.749,4.526
		c0.804,1.606,1.87,3.097,2.9,4.538c1.428,1.998,2.778,3.885,3.357,5.912c0.373,1.307,0.212,2.965,0.041,4.721
		c-0.154,1.572-0.312,3.199-0.09,4.751c0.201,1.407,0.951,2.502,1.613,3.467c0.484,0.705,0.94,1.371,1.067,2.003
		c0.436,2.18,0.532,6.808,0.033,8.555c-0.125,0.439-0.543,1.029-0.946,1.6c-0.483,0.683-1.03,1.457-1.346,2.326
		c-0.654,1.798-1.269,3.587-1.864,5.317c-1.023,2.978-1.991,5.79-3.159,8.711c-2.334,5.834-3.686,12.109-4.994,18.178
		c-0.561,2.605-1.142,5.3-1.785,7.873c-0.154,0.616-0.505,1.776-0.911,3.12c-2.351,7.77-3.363,11.786-2.761,13.591
		c0.722,2.17,3.5,1.764,8.539,1.027c1.542-0.225,3.946-0.578,5.11-0.564c0.022,0.979-0.484,2.865-0.671,3.562
		c-0.113,0.42-0.212,0.793-0.278,1.092c-1.067,4.796-0.664,10.83-0.371,15.236c0.345,5.165,0.957,10.42,1.549,15.501
		c1.205,10.339,2.45,21.03,1.498,31.506c-0.235,2.59-1.077,5.11-1.969,7.779c-0.847,2.534-1.723,5.154-2.067,7.907
		c-0.694,5.55-0.687,11.234-0.681,16.731l0.001,1.605c0,8.062,0.689,16.116,1.355,23.905c0.106,1.242,0.213,2.486,0.317,3.731
		c0.366,4.393,0.246,9.386-0.322,13.357c-0.129,0.901-0.355,1.909-0.594,2.976c-0.591,2.633-1.26,5.617-0.721,8.311
		c0.253,1.264,0.919,2.226,1.508,3.075c0.371,0.536,0.722,1.042,0.878,1.509c0.217,0.649,0.336,1.368,0.424,2.125
		c-3.435,4.521-7.881,13.031-6.905,26.1c0.067,0.905,0.821,1.603,1.727,1.603c0.005,0,0.011,0,0.016,0l23.059-0.22
		c0.896-0.009,1.637-0.699,1.71-1.592l0.268-3.321c1.924,0.277,3.669,0.711,4.604,1.272c0.31,0.187,0.653,0.411,1.015,0.648
		c1.376,0.9,2.936,1.919,4.522,2.237c1.163,0.232,2.346,0.327,3.538,0.327c2.589,0,5.225-0.444,7.801-0.877
		c1.639-0.276,3.186-0.536,4.649-0.669c4.759-0.433,9.385-0.401,14.285-0.367c1.294,0.009,2.593,0.018,3.899,0.018
		c1.057,0,2.135-0.109,3.177-0.215c0.013-0.001,0.026-0.003,0.04-0.004c-1.23,6.626-0.349,13.455,3.432,19.078
		c5.66,8.416,18.029,10.225,27.306,10.866c15.626,1.08,30.536-2.256,45.77-5.141c7.317-1.385,14.617-1.503,21.941-2.448
		c1.59-0.205,6.03-0.979,7.78-2.156c3.038-2.043,3.876-4.743,8.243-4.518c6.928,0.357,3.701,5.546,7.355,9.412
		c1.9,2.01,7.685,3.739,10.167,4.444c20.44,5.801,42.961,5.256,63.986,5.172c15.9-0.064,31.762-1.045,46.348-8.093
		c4.395-2.124,8.68-4.22,10.349-9.011C430.428,443.923,414.417,437.626,403.018,434.391z M140.244,423.124
		c0.19-1.703,0.606-4.012,1.351-7.486c0.053-0.251,0.417-1.929,0.775-3.574l0.7-3.226c0.079-0.364,0.038-0.743-0.116-1.082
		c-1.474-3.247-1.159-7.661-0.881-11.556c0.069-0.969,0.136-1.916,0.178-2.823c0.367-8.071,0.643-15.959-0.004-23.719
		c-0.183-2.193-0.034-4.4,0.124-6.737c0.106-1.571,0.215-3.195,0.215-4.82c0-27.313,6.718-54.17,13.216-80.143l0.479-1.914
		c1.079-4.316,1.546-8.819,1.998-13.173c0.357-3.444,0.727-7.006,1.397-10.356c0.177-0.883,0.055-1.836-0.064-2.757
		c-0.062-0.483-0.159-1.234-0.126-1.641c0.685-0.118,2.329,0.077,3.458,0.212c3.805,0.452,10.182,1.211,11.154-4.62
		c0.56-3.355,0.626-6.808,0.689-10.147c0.065-3.361,0.125-6.537,0.642-9.64c1.444-8.663,2.901-17.717,4.042-26.89
		c0.739,2.314,1.392,4.661,1.956,6.914c2.127,8.508,3.369,17.69,4.804,26.303c0.06,0.363,0.098,0.735,0.115,1.112
		c0.018,0.378,0.017,0.762,0.002,1.15c-0.015,0.389-0.045,0.781-0.085,1.176c-0.197,1.974-0.638,4.004-0.746,5.837
		c-0.5,8.508-2.498,16.517-4.091,24.876c-1.081,5.674-2.678,11.267-3.993,16.918c-0.438,1.883-0.845,3.773-1.191,5.675
		c-0.407,2.239-0.807,4.479-1.203,6.72c-1.583,8.966-3.096,17.952-4.686,26.924c-1.192,6.729-2.427,13.451-3.767,20.151
		c-3.073,15.367-7.39,30.59-10.749,45.947c-0.366,1.672-0.787,3.327-1.24,4.972c-1.22,4.426-1.926,8.975-3.116,13.409
		c-0.968,3.605-3.124,6.75-4.174,10.319c-0.941,3.196-0.704,6.471-1.263,9.725c-0.079,0.458-0.147,0.833-0.218,1.134l-0.028,0.122
		c-0.142,0.608-0.289,1.236-0.343,1.345c-0.103,0.093-0.544,0.314-0.97,0.527l-0.077,0.038c-0.87,0.435-2.174,0.549-3.23-0.433
		c-0.543-0.505-0.799-1.024-0.945-1.915C140.106,425.214,140.11,424.333,140.244,423.124z"/>
		<path d="M263.873,216.672c-0.106-0.335-29.237-63.891-29.351-64.284c-6.405-12.541-24.517-3.875-18.831,8.956l22.271,44.999
		c-11.465-3.243-22.802-6.975-33.881-11.337c-5.834-2.305-11.547-4.852-17.171-7.597c-1.831-0.945-4.133-0.389-5.311,1.371
		c-1.268,1.891-0.762,4.452,1.129,5.719c5.427,3.638,10.987,7.084,16.669,10.28c11.365,6.383,23.096,12.042,35.056,17.215
		c2.992,1.286,5.996,2.55,9.026,3.774c3.051,1.236,6.02,2.403,9.256,3.588c2.087,0.639,4.423,0.551,6.564-0.426
		C263.947,226.808,265.995,221.32,263.873,216.672z"/>
	</g>
</svg>
