<?xml version="1.0" encoding="iso-8859-1"?>
<!-- Uploaded to: SVG Repo, www.svgrepo.com, Generator: SVG Repo Mixer Tools -->
<svg version="1.1" id="Layer_1" xmlns="http://www.w3.org/2000/svg" xmlns:xlink="http://www.w3.org/1999/xlink" 
	 viewBox="0 0 512 512" xml:space="preserve">
<path style="fill:#F2DB79;" d="M369.075,199.191c-74.607,0-135.088,60.482-135.088,135.09s60.481,135.09,135.088,135.09
	c74.606,0,135.089-60.482,135.089-135.09S443.68,199.191,369.075,199.191z M369.075,431.845c-53.798,0-97.561-43.768-97.561-97.565
	c0-53.797,43.763-97.564,97.561-97.564s97.564,43.768,97.564,97.564C466.639,388.078,422.872,431.845,369.075,431.845z"/>
<path style="fill:#DDC045;" d="M252.739,402.916c-21.921,18.065-49.987,28.93-80.543,28.93
	c-69.937,0-126.835-56.898-126.835-126.834c0-69.937,56.898-126.835,126.835-126.835c69.936,0,126.833,56.898,126.833,126.835
	c0,24.859-7.217,48.052-19.626,67.647c5.347,12.449,13.214,23.56,22.953,32.708c21.438-27.763,34.198-62.567,34.198-100.355
	c0-90.773-73.587-164.359-164.358-164.359C81.423,140.652,7.837,214.238,7.837,305.012c0,90.771,73.586,164.358,164.359,164.358
	c39.446,0,75.642-13.902,103.969-37.068C267.059,423.67,259.163,413.782,252.739,402.916z"/>
<path style="fill:#FFC529;" d="M373.992,73.497c-12.76,8.222-19.427,14.888-27.649,27.649
	c-8.222-12.761-14.889-19.427-27.649-27.649c12.76-8.222,19.427-14.888,27.649-27.649C354.565,58.609,361.232,65.274,373.992,73.497
	z"/>
<g>
	
		<rect x="270.892" y="97.251" transform="matrix(-0.7071 -0.7071 0.7071 -0.7071 406.9745 389.6758)" style="fill:#FFED84;" width="26.6" height="26.599"/>
	
		<rect x="73.421" y="48.137" transform="matrix(-0.7071 -0.7071 0.7071 -0.7071 104.5987 166.1997)" style="fill:#FFED84;" width="26.6" height="26.599"/>
</g>
<path style="fill:#FFBAC5;" d="M389.017,150.679c-5.978,0-11.633,2.295-15.918,6.46c-1.607,1.56-2.955,3.32-4.023,5.221
	c-1.067-1.902-2.415-3.661-4.023-5.221c-4.286-4.164-9.938-6.46-15.918-6.46c-12.6,0-22.849,10.25-22.849,22.849
	c0,7.125,3.234,13.711,8.874,18.077l31.759,25.482c1.179,0.945,3.139,0.947,4.315,0l31.759-25.482
	c5.639-4.366,8.873-10.951,8.873-18.077C411.865,160.93,401.616,150.679,389.017,150.679z"/>
<path style="fill:#FF8163;" d="M196.334,79.49c-7.237,0-14.081,2.776-19.27,7.818c-1.942,1.888-3.575,4.018-4.867,6.321
	c-1.294-2.303-2.925-4.432-4.868-6.321c-5.19-5.042-12.034-7.818-19.27-7.818c-15.251,0-27.657,12.407-27.657,27.657
	c0,8.626,3.914,16.598,10.742,21.881l38.442,30.845c1.425,1.144,3.797,1.145,5.222,0l38.443-30.845
	c6.827-5.284,10.742-13.257,10.742-21.881C223.991,91.897,211.585,79.49,196.334,79.49z"/>
<g style="opacity:0.1;">
	<path d="M356.928,181.078c-5.64-4.366-8.874-10.951-8.874-18.077c0-4.477,1.299-8.654,3.533-12.182
		c-0.809-0.087-1.627-0.14-2.451-0.14c-12.6,0-22.849,10.25-22.849,22.849c0,7.125,3.234,13.711,8.874,18.077l31.759,25.482
		c1.179,0.945,3.139,0.947,4.315,0l15.286-12.265L356.928,181.078z"/>
</g>
<g style="opacity:0.1;">
	<path d="M152.909,118.502c-6.827-5.284-10.742-13.257-10.742-21.881c0-6.466,2.236-12.414,5.966-17.129
		c-0.026,0-0.051-0.002-0.076-0.002c-15.251,0-27.657,12.407-27.657,27.657c0,8.626,3.914,16.598,10.742,21.881l38.442,30.845
		c1.425,1.144,3.797,1.145,5.222,0l14.832-11.901L152.909,118.502z"/>
</g>
<path d="M314.449,80.085c11.795,7.6,17.707,13.513,25.306,25.306c1.443,2.239,3.925,3.592,6.588,3.592
	c2.663,0,5.145-1.353,6.588-3.592c7.598-11.794,13.512-17.706,25.306-25.306c2.239-1.443,3.592-3.924,3.592-6.588
	c0-2.664-1.353-5.145-3.592-6.588c-11.795-7.6-17.707-13.513-25.306-25.305c-1.443-2.239-3.925-3.592-6.588-3.592
	c-2.663,0-5.145,1.353-6.588,3.592c-7.6,11.793-13.512,17.706-25.306,25.305c-2.239,1.443-3.592,3.924-3.592,6.588
	C310.857,76.161,312.21,78.642,314.449,80.085z M346.343,59.44c4.245,5.416,8.642,9.813,14.057,14.057
	c-5.416,4.245-9.813,8.642-14.057,14.057c-4.245-5.416-8.641-9.813-14.057-14.057C337.702,69.251,342.098,64.854,346.343,59.44z"/>
<path d="M278.673,134.9c1.53,1.53,3.536,2.295,5.541,2.295c2.005,0,4.011-0.765,5.542-2.296l18.807-18.808
	c3.06-3.061,3.06-8.023-0.001-11.082l-18.809-18.808c-3.059-3.062-8.022-3.061-11.082,0l-18.808,18.808
	c-1.469,1.47-2.295,3.463-2.295,5.541s0.825,4.072,2.296,5.542L278.673,134.9z M284.212,102.824l7.727,7.726l-7.724,7.725
	l-7.728-7.726L284.212,102.824z"/>
<path d="M81.188,85.79c1.53,1.53,3.536,2.295,5.541,2.295s4.011-0.765,5.542-2.296l18.807-18.808
	c3.061-3.061,3.061-8.023-0.001-11.082L92.268,37.09c-3.059-3.062-8.022-3.061-11.082,0L62.377,55.898
	c-1.47,1.469-2.296,3.463-2.296,5.541s0.825,4.072,2.296,5.542L81.188,85.79z M86.727,53.714l7.727,7.726l-7.725,7.725l-7.728-7.726
	L86.727,53.714z"/>
<path d="M487.112,253.666c-2.443-3.573-7.321-4.486-10.893-2.043c-3.571,2.444-4.487,7.321-2.042,10.893
	c14.491,21.179,22.15,45.994,22.15,71.764c0,70.167-57.085,127.253-127.252,127.253c-70.166,0-127.251-57.086-127.251-127.253
	c0-33.599,13.1-64.187,34.447-86.954c3.942,7.097,7.151,14.593,9.568,22.381c-13.88,17.851-22.162,40.261-22.162,64.574
	c0,58.119,47.282,105.402,105.398,105.402c58.118,0,105.401-47.283,105.401-105.402c0-58.118-47.283-105.401-105.401-105.401
	c-13.762,0-26.912,2.662-38.975,7.484c-2.94-6.735-6.31-13.241-10.054-19.498c7.876-3.301,16.154-5.827,24.736-7.493l17.236,13.829
	c4.012,3.215,10.11,3.222,14.121-0.003l17.237-13.83c23.083,4.467,44.562,15.259,62.104,31.489
	c3.176,2.939,8.132,2.747,11.075-0.429c2.939-3.176,2.747-8.135-0.429-11.075c-16.513-15.281-36.133-26.273-57.316-32.388
	c6.936-5.848,10.895-14.313,10.895-23.437c0-16.92-13.765-30.686-30.686-30.686c-7.378,0-14.388,2.602-19.941,7.361
	c-5.555-4.762-12.564-7.361-19.941-7.361c-16.92,0-30.686,13.765-30.686,30.686c0,9.131,3.965,17.602,10.911,23.45
	c-6.223,1.802-12.268,4.023-18.113,6.618c-23.336-31.907-57.361-55.519-96.769-65.506l3.627-2.91
	c8.723-6.778,13.724-16.992,13.724-28.034c0-19.571-15.922-35.494-35.494-35.494c-9.014,0-17.553,3.357-24.138,9.471
	c-6.585-6.114-15.125-9.471-24.139-9.471c-19.571,0-35.494,15.922-35.494,35.494c0,11.042,5.001,21.255,13.725,28.035l3.626,2.909
	C55.343,156.989,0,224.649,0,305.012c0,41.492,14.965,81.573,42.141,112.862c1.549,1.784,3.728,2.698,5.919,2.698
	c1.822,0,3.652-0.631,5.136-1.919c3.267-2.838,3.616-7.789,0.777-11.056c-24.697-28.437-38.3-64.868-38.3-102.584
	c0-77.27,56.283-141.638,130.006-154.271l18.998,15.244c4.262,3.42,10.772,3.427,15.033,0.001l19.001-15.245
	c73.723,12.632,130.006,77,130.006,154.271c0,31.877-9.38,62.186-27.211,88.21c-5.31-6.066-9.745-12.767-13.249-20.025
	c12.188-20.666,18.609-44.146,18.609-68.185c0-45.614-22.881-87.793-61.208-112.829c-3.624-2.366-8.48-1.35-10.847,2.276
	c-2.367,3.624-1.348,8.479,2.276,10.847c11.939,7.798,22.173,17.483,30.433,28.512c-25.559,25.836-41.369,61.334-41.369,100.462
	c0,24.018,5.975,46.66,16.485,66.55c-20.35,14.978-45.112,23.179-70.44,23.179c-65.615,0-118.998-53.382-118.998-118.997
	s53.383-118.998,118.998-118.998c12.802,0,25.4,2.03,37.446,6.033c4.103,1.365,8.543-0.858,9.908-4.964
	c1.366-4.107-0.858-8.543-4.965-9.909c-13.642-4.535-27.904-6.834-42.388-6.834c-74.258,0-134.672,60.413-134.672,134.672
	c0,74.258,60.413,134.671,134.672,134.671c28.165,0,55.72-8.937,78.519-25.323c4.106,6.059,8.67,11.795,13.651,17.157
	c-26.643,19.411-59.047,30.017-92.169,30.017c-34.825,0-67.787-11.191-95.322-32.363c-3.431-2.639-8.352-1.995-10.989,1.436
	c-2.638,3.431-1.996,8.352,1.436,10.989c30.297,23.297,66.562,35.611,104.874,35.611c37.376,0,73.918-12.281,103.65-34.698
	c25.046,21.606,57.632,34.698,93.229,34.698C447.884,477.207,512,413.091,512,334.28C512,305.34,503.394,277.464,487.112,253.666
	C484.669,250.094,503.394,277.464,487.112,253.666C484.669,250.094,503.394,277.464,487.112,253.666z M349.135,158.516
	c3.928,0,7.641,1.507,10.459,4.245c1.05,1.019,1.94,2.174,2.647,3.434c1.388,2.471,4.001,4.002,6.835,4.002
	c2.834,0,5.447-1.53,6.835-4.002c0.706-1.26,1.597-2.415,2.649-3.437c2.816-2.737,6.53-4.243,10.457-4.243
	c8.278,0,15.012,6.734,15.012,15.012c0,4.68-2.126,9.009-5.834,11.879c-0.036,0.028-0.071,0.056-0.108,0.086l-29.012,23.277
	l-29.013-23.277c-0.036-0.029-0.071-0.057-0.108-0.086c-3.707-2.869-5.834-7.199-5.834-11.879
	C334.123,165.25,340.857,158.516,349.135,158.516z M208.453,122.831c-0.037,0.028-0.072,0.056-0.109,0.086l-36.15,29.004
	l-36.148-29.004c-0.036-0.029-0.071-0.057-0.109-0.086c-4.894-3.788-7.701-9.504-7.701-15.684c0-10.93,8.892-19.821,19.821-19.821
	c5.187,0,10.091,1.989,13.811,5.604c1.382,1.343,2.558,2.869,3.495,4.537c1.388,2.47,4.001,3.999,6.834,3.999
	c2.834-0.001,5.446-1.53,6.833-4.001c0.935-1.665,2.111-3.191,3.495-4.536c3.719-3.612,8.622-5.603,13.809-5.603
	c10.929,0,19.821,8.891,19.821,19.821C216.154,113.327,213.347,119.044,208.453,122.831z M344.391,305.012
	c0-18.855-3.055-37.008-8.682-54c10.318-4.158,21.575-6.46,33.366-6.46c49.476,0,89.727,40.252,89.727,89.727
	c0,49.477-40.252,89.729-89.727,89.729c-21.228,0-40.738-7.432-56.117-19.807C333.546,375.094,344.391,340.958,344.391,305.012z
	 M291.192,305.012c0,16.443-3.417,32.585-9.951,47.513c-1.23-5.893-1.891-11.991-1.891-18.244c0-15.587,4.016-30.244,11.037-43.027
	C290.912,295.788,291.192,300.378,291.192,305.012z"/>
</svg>